<svg xmlns="http://www.w3.org/2000/svg" viewBox="0 0 1024 1024" width="1024" height="1024">
  <rect x="0" y="0" width="1024" height="1024" rx="230" fill="#1C1C1E"/>
  <g transform="translate(512 512) scale(1.82) translate(-510.2 -512)">
    <rect x="488" y="348" width="48" height="328" rx="24" fill="#0A84FF"/>
    <path d="M327.4 407.0H376.3L371.1 512.0H332.6ZM327.4 617.0 332.6 512.0H371.1L376.3 617.0ZM249.8 478.3 274.8 440.0 361.6 496.6 342.3 527.3ZM454.2 478.3 361.7 527.3 342.4 496.6 429.2 440.0ZM454.1 545.6 429.1 583.9 342.3 527.3 361.6 496.6ZM249.8 546.0 342.3 497.0 361.6 527.6 274.8 584.3Z" fill="#FFFFFF"/>
    <path d="M649.6 630.0Q626.9 630.0 609.8 621.3Q592.6 612.6 583.0 597.1Q573.4 581.6 573.4 561.3V560.9Q573.4 540.7 583.5 526.2Q593.6 511.7 612.8 503.3Q632.0 494.8 659.2 493.1L745.9 488.0V522.3L666.3 527.4Q646.1 528.5 635.3 536.9Q624.5 545.3 624.5 559.2V559.6Q624.5 573.9 635.4 582.1Q646.2 590.4 664.3 590.4Q680.1 590.4 692.5 584.0Q705.0 577.6 712.3 566.5Q719.6 555.3 719.6 541.4V473.3Q719.6 455.5 708.4 445.3Q697.2 435.1 676.4 435.1Q657.0 435.1 645.3 443.4Q633.6 451.6 630.8 464.6L630.4 466.6H582.9L583.1 464.1Q584.9 444.1 596.5 428.2Q608.2 412.4 628.9 403.2Q649.6 394.0 678.0 394.0Q706.3 394.0 727.0 403.4Q747.8 412.7 759.2 429.7Q770.6 446.6 770.6 469.5V626.0H719.6V590.8H718.5Q712.0 602.7 701.5 611.6Q691.1 620.4 677.9 625.2Q664.7 630.0 649.6 630.0Z" fill="#FFFFFF"/>
  </g>
</svg>
